# Blender 5.1.2
# www.blender.org
mtllib platform.mtl
o Cube
v 1.000000 0.000000 -1.000000
v 1.000000 -9.000000 -1.000000
v 1.000000 0.000000 1.000000
v 1.000000 -9.000000 1.000000
v -1.000000 0.000000 -1.000000
v -1.000000 -9.000000 -1.000000
v -1.000000 0.000000 1.000000
v -1.000000 -9.000000 1.000000
v -1.000000 -0.577880 -1.000000
v 1.000000 -0.577880 1.000000
v -1.000000 -0.577880 1.000000
v 1.000000 -0.577880 -1.000000
v -1.056368 -0.577880 1.056368
v -1.056368 0.000000 1.056368
v -1.056368 -0.577880 -1.056368
v 1.056368 -0.577880 -1.056368
v 1.056368 0.000000 -1.056368
v 1.056368 0.000000 1.056368
v 1.056368 -0.577880 1.056368
v -1.056368 0.000000 -1.056368
vn -1.0000 -0.0000 -0.0000
vn -0.0000 1.0000 -0.0000
vn -0.0000 -1.0000 -0.0000
vn -0.0000 -0.0000 -1.0000
vn 1.0000 -0.0000 -0.0000
vn -0.0000 -0.0000 1.0000
vt 0.528724 0.004560
vt 0.528724 0.739906
vt 0.354101 0.739906
vt 0.354101 0.004560
vt 0.913950 0.905326
vt 0.908093 0.785623
vt 0.911623 0.781252
vt 0.918321 0.908856
vt 0.788390 0.791480
vt 0.794247 0.911183
vt 0.790718 0.915554
vt 0.784019 0.787951
vt 0.226010 0.964898
vt 0.051387 0.964898
vt 0.051387 0.790275
vt 0.226010 0.790275
vt 0.714430 0.985143
vt 0.714430 0.711663
vt 0.722722 0.720768
vt 0.723535 0.976852
vt 0.987910 0.711663
vt 0.978805 0.719955
vt 0.179479 0.739906
vt 0.179479 0.004560
vt 0.004856 0.739906
vt 0.004856 0.004560
vt 0.703346 0.004560
vt 0.703346 0.739906
vt 0.979619 0.976038
vt 0.987910 0.985143
s 0
usemtl Material
f 8/1/1 11/2/1 9/3/1 6/4/1
f 5/5/2 1/6/2 17/7/2 20/8/2
f 3/9/2 7/10/2 14/11/2 18/12/2
f 6/13/3 2/14/3 4/15/3 8/16/3
f 11/17/3 10/18/3 19/19/3 13/20/3
f 10/18/3 12/21/3 16/22/3 19/19/3
f 6/4/4 9/3/4 12/23/4 2/24/4
f 2/24/5 12/23/5 10/25/5 4/26/5
f 5/5/2 7/10/2 3/9/2 1/6/2
f 4/27/6 10/28/6 11/2/6 8/1/6
f 19/19/6 18/12/6 14/11/6 13/20/6
f 13/20/1 14/11/1 20/8/1 15/29/1
f 16/22/5 17/7/5 18/12/5 19/19/5
f 15/29/4 20/8/4 17/7/4 16/22/4
f 7/10/2 5/5/2 20/8/2 14/11/2
f 9/30/3 11/17/3 13/20/3 15/29/3
f 1/6/2 3/9/2 18/12/2 17/7/2
f 12/21/3 9/30/3 15/29/3 16/22/3
